<?xml version="1.0" encoding="UTF-8"?><svg id="_레이어_2" xmlns="http://www.w3.org/2000/svg" viewBox="0 0 267.91 267.89"><defs><style>.cls-1{fill:#666767;}</style></defs><g id="_레이어_1-2"><path class="cls-1" d="M161.04,2.74c1.21.25,2.4.51,3.6.79-1.19-.28-2.39-.55-3.6-.79Z"/><path class="cls-1" d="M190.82,12.64c1.01.47,2.01.96,3,1.46-.99-.5-2-.98-3-1.46Z"/><path class="cls-1" d="M165.35,3.71c.99.24,1.97.48,2.95.74-.98-.26-1.96-.51-2.95-.74Z"/><path class="cls-1" d="M120.9,211.78c7.86-4.38,10.7-14.33,6.32-22.22h0s-15.28-27.52-15.28-27.52c-5.14-.9-10.05-4.3-12.98-9.6-2.95-5.31-3.26-11.29-1.3-16.12l-18.59-33.48h0c-8.72-15.71-3.06-35.51,12.63-44.24L181.53,8.7c1.05.4,2.1.81,3.13,1.24-2.87-1.17-5.79-2.25-8.75-3.23l-88.32,49.06c-18.99,10.55-25.84,34.49-15.28,53.48,0,0,0,0,0,0l24.8,44.62h0s23.72,42.69,23.72,42.69h0c2.36,4.28.82,9.66-3.44,12.02l-16.66,9.25-21.05-37.89c-5.13-.9-10.04-4.31-12.99-9.61-2.94-5.3-3.24-11.27-1.29-16.1l-20.53-36.97h-.01c-11.72-21.11-4.12-47.71,16.96-59.44L161.03,2.74c-8.75-1.79-17.8-2.74-27.08-2.74C59.98,0,0,59.96,0,133.95c0,46.63,23.84,87.68,59.98,111.67l60.92-33.84Z"/><path class="cls-1" d="M172.42,5.61c1.17.35,2.33.71,3.49,1.09-1.16-.38-2.32-.74-3.49-1.09Z"/><path class="cls-1" d="M231.85,42.53c-1.36-1.46-2.75-2.88-4.17-4.27,1.42,1.39,2.81,2.82,4.17,4.27Z"/><path class="cls-1" d="M231.89,42.57c1.36,1.45,2.68,2.94,3.98,4.45-1.29-1.51-2.62-3-3.98-4.45Z"/><path class="cls-1" d="M187.77,11.26c1.02.45,2.03.91,3.03,1.38-1-.47-2.02-.93-3.03-1.38Z"/><path class="cls-1" d="M168.93,4.62c1.05.28,2.09.58,3.13.89-1.04-.31-2.08-.6-3.13-.89Z"/><path class="cls-1" d="M67.84,250.46c-.87-.49-1.73-1-2.59-1.51.86.51,1.72,1.02,2.59,1.51Z"/><path class="cls-1" d="M253.58,73.62c-1.18-2.34-2.43-4.63-3.74-6.89,1.31,2.25,2.56,4.55,3.74,6.89-3.31-6.55-7.15-12.79-11.45-18.67,1.16,1.58,2.28,3.18,3.37,4.82-1.09-1.63-2.21-3.24-3.37-4.82-.02-.02-.04-.05-.05-.07-1.16-1.58-2.35-3.14-3.58-4.66-.86-1.08-1.74-2.14-2.64-3.19-1.29-1.51-2.62-3-3.98-4.45-.01-.01-.03-.03-.04-.04-1.36-1.46-2.75-2.88-4.18-4.28-8.65-8.47-18.44-15.78-29.12-21.67,3.59,1.98,7.08,4.14,10.46,6.43h.01c.14.09.28.19.42.29-.14-.1-.29-.19-.43-.29l-62.25,34.59c-7.89,4.38-10.74,14.33-6.35,22.22l22.25,40.04h-.01s25.92,46.68,25.92,46.68c8.73,15.71,3.08,35.5-12.62,44.22l-88.11,48.94c.68.25,1.37.51,2.05.75,1.21.42,2.42.83,3.64,1.21l86.52-48.06c18.98-10.55,25.81-34.5,15.27-53.48h0s-18.83-33.91-18.83-33.91c-5.16-.89-10.11-4.3-13.06-9.62-2.95-5.31-3.24-11.3-1.28-16.15l-15.35-27.65c-2.39-4.26-.85-9.64,3.42-12.01l16.66-9.27,26.99,48.59,28.88,51.98s.01.02.01.02c11.72,21.1,4.12,47.71-16.98,59.43l-97.12,53.95c8.19,1.56,16.64,2.39,25.28,2.39,73.98,0,133.95-59.97,133.95-133.94,0-21.7-5.17-42.2-14.33-60.33Z"/><path class="cls-1" d="M184.67,9.94c1.03.42,2.06.86,3.08,1.31-1.02-.45-2.05-.88-3.08-1.31Z"/><path class="cls-1" d="M242.08,54.87c-1.16-1.58-2.35-3.14-3.58-4.66,1.23,1.53,2.42,3.08,3.58,4.66Z"/><path class="cls-1" d="M149,213.51c14.26-7.92,19.39-25.89,11.47-40.14h0s-16.24-29.24-16.24-29.24c-5.14-.87-10.08-4.29-13.03-9.6-2.98-5.35-3.25-11.37-1.25-16.22l-16.24-29.21c-5.95-10.72-2.09-24.21,8.61-30.16l76.23-42.35c-1.56-.86-3.13-1.68-4.72-2.48l-75.19,41.77c-14.25,7.92-19.39,25.9-11.46,40.15h0s23.21,41.79,23.21,41.79l-.06.02,23.6,42.46h0c5.95,10.72,2.08,24.22-8.62,30.17l-74.73,41.51c6.16,3.32,12.62,6.16,19.31,8.49-.69-.24-1.38-.48-2.07-.73h.03c-4.27-1.58-8.44-3.34-12.49-5.31l73.64-40.91Z"/><path class="cls-1" d="M108.67,265.5c-5.15-.98-10.2-2.26-15.13-3.82,4.93,1.56,9.98,2.83,15.13,3.82Z"/><path class="cls-1" d="M65.18,248.91c-1.76-1.06-3.49-2.15-5.2-3.28,1.71,1.13,3.44,2.23,5.2,3.28Z"/><path class="cls-1" d="M70.58,251.98c-.87-.47-1.74-.95-2.6-1.44.86.49,1.72.97,2.6,1.44Z"/></g></svg>