<?xml version="1.0" encoding="UTF-8"?><svg id="_레이어_2" xmlns="http://www.w3.org/2000/svg" viewBox="0 0 522.28 218.77"><defs><style>.cls-1{fill:#666767;fill-rule:evenodd;}</style></defs><g id="_레이어_1-2"><path class="cls-1" d="M158.87,204.01h0v-18.97h0v-1.92h-6.92c.94,1.41,1.48,2.29,1.48,4.9h0v17.14c-.17,4.84-3.9,9.56-9.22,9.56s-9.08-4.74-9.23-9.59v-20.08h-.01v-1.92h-6.9c.92,1.41,1.47,2.29,1.47,4.9h0v15.99h0c.01,8.1,6.57,14.66,14.67,14.66s14.66-6.56,14.66-14.66h0Z"/><path class="cls-1" d="M99.33,183.12h-6.9c.92,1.41,1.47,2.29,1.47,4.9h0v22.41l-17.31-27.35-.09.04h-6.91c.92,1.41,1.47,2.29,1.47,4.9h.01v29.85h3.53c1.05,0,1.9-.85,1.9-1.9v-.02h0v-24.73l16.88,26.65h0s4.06,0,4.06,0h0c1.05,0,1.9-.85,1.9-1.9v-.02h0v-30.91h0v-1.92Z"/><path class="cls-1" d="M123.11,185.04h-.01v-1.92h-6.89c.91,1.41,1.46,2.29,1.46,4.91h.01v20.14h0c0,3.67-2.41,6.65-5.8,6.65-2.79,0-4.91-2.02-5.59-4.79l-4.37,2.67c1.85,3.61,5.62,6.08,9.96,6.08,6.18,0,11.22-5.01,11.22-11.19h0v-22.54Z"/><path class="cls-1" d="M33.9,183.12h-6.9c.92,1.41,1.46,2.29,1.46,4.9h0v9.32H11.48v-12.3h0v-1.92h-6.9c.92,1.41,1.48,2.29,1.48,4.9h0v29.85h3.54c1.03,0,1.88-.85,1.88-1.89v-.03h0v-14.84h16.99v16.77h3.54c1.05,0,1.9-.85,1.9-1.89v-30.94h0v-1.92Z"/><path class="cls-1" d="M53.36,183.12h-6.37c.52.77.97,1.94.71,3.7l-11.75,31.06h5.6l3.62-10.17h15.01l3.46,10.17h5.78l-12.61-34.76h-3.45ZM46.52,203.94l6.25-17.58h.14l6,17.58h-12.39Z"/><path class="cls-1" d="M270.93,193.1c0-5.52-5.19-9.98-11.57-9.98h-13.95s-1.78,0-1.78,0c.91,1.41,1.46,2.29,1.46,4.9h.01v29.85h3.52c1.06,0,1.9-.85,1.9-1.9v-12.88h7.09l9.06,14.79h5.54l-9.4-15.24c4.71-1.28,8.12-5.05,8.12-9.54ZM250.51,186.88h8.84c3.32.1,5.98,2.85,5.98,6.21s-2.73,6.2-6.12,6.23h-8.71v-12.45Z"/><path class="cls-1" d="M223.56,182.31c-9.56,0-17.33,8.14-17.33,18.17s7.77,18.17,17.33,18.17,17.31-8.14,17.31-18.17-7.76-18.17-17.31-18.17ZM223.56,214.63c-6.33,0-11.44-6.34-11.44-14.15s5.12-14.15,11.44-14.15,11.43,6.33,11.43,14.15-5.11,14.15-11.43,14.15Z"/><path class="cls-1" d="M321.08,182.31c-9.56,0-17.31,8.14-17.31,18.17s7.76,18.17,17.31,18.17,17.31-8.14,17.31-18.17-7.75-18.17-17.31-18.17ZM321.08,214.63c-6.33,0-11.44-6.34-11.44-14.15s5.11-14.15,11.44-14.15,11.45,6.33,11.45,14.15-5.13,14.15-11.45,14.15Z"/><path class="cls-1" d="M202.55,186.06s0-.01-.02-.02c-3.06-2.33-6.88-3.73-11.02-3.73h-.06c-9.88,0-17.74,8.14-17.74,18.17s7.86,18.17,17.56,18.17h0c.07-.01.15,0,.23,0,5.58,0,10.59-2.54,13.92-6.5l-3.43-3.23c-2.36,3.58-6.12,5.8-10.48,5.8-.09,0-.16,0-.23,0v-.05c-6.47,0-11.7-6.3-11.7-14.19s5.23-14.24,11.87-14.24v-.02h.06c4.01,0,7.5,1.86,9.88,4.96l3.35-3.16s0,0-.02-.03l1.02-.97c-.84-.04-1.99-.11-3.18-.98Z"/><path class="cls-1" d="M289.92,183.11h0s-12.87,0-12.87,0h0s-2.39,0-2.39,0c.92,1.41,1.47,2.29,1.47,4.9h0v29.85h3.54c1.05,0,1.9-.85,1.9-1.9v-11.43h8.36c6.87,0,12.43-4.8,12.43-10.72s-5.56-10.72-12.43-10.72ZM289.98,200.79h-8.42v-13.91h8.42c3.78.07,6.83,3.16,6.83,6.95s-3.05,6.88-6.83,6.96Z"/><path class="cls-1" d="M363.8,217.87h5.46l-9.27-15.2c4.71-1.28,8.13-5.06,8.13-9.55,0-5.52-5.19-10.01-11.6-10.01h-13.95s-1.78,0-1.78,0c.92,1.41,1.47,2.29,1.47,4.9h0v29.85h3.54c1.05,0,1.89-.85,1.89-1.9v-12.84h7.12l8.99,14.74ZM347.69,186.88h8.66c3.41,0,6.17,2.81,6.17,6.25s-2.72,6.21-6.1,6.25h-8.72v-12.49Z"/><path class="cls-1" d="M456.51,182.31c-9.57,0-17.31,8.14-17.31,18.17s7.74,18.17,17.31,18.17,17.31-8.14,17.31-18.17-7.75-18.17-17.31-18.17ZM456.51,214.63c-6.33,0-11.44-6.34-11.44-14.15s5.11-14.15,11.44-14.15,11.44,6.33,11.44,14.15-5.12,14.15-11.44,14.15Z"/><path class="cls-1" d="M396.83,186.86h11.16c.03.34.05.72.05,1.16h0v29.85h3.53c1.05,0,1.9-.84,1.9-1.89v-29.13h11.44v-3.77h-28.08v3.77Z"/><path class="cls-1" d="M506.79,185.04v-1.92h-6.9c.91,1.41,1.46,2.29,1.46,4.9h.01v22.41l-17.33-27.35-.1.04h-6.89c.91,1.41,1.45,2.29,1.45,4.9h.01v29.85h3.53c1.05,0,1.91-.84,1.91-1.89v-24.77l16.88,26.65h0s4.06,0,4.06,0c1.05,0,1.89-.84,1.9-1.89h0v-30.95h0Z"/><path class="cls-1" d="M434.77,183.12h-6.9c.91,1.41,1.46,2.29,1.46,4.9h0v29.85h3.54c1.05,0,1.91-.84,1.91-1.89v-30.95h0v-1.92Z"/><path class="cls-1" d="M385.71,183.12h-6.37c.52.77.97,1.94.71,3.7l-11.74,31.06h5.59l3.62-10.17h15.01l3.46,10.17h5.78l-12.61-34.76h-3.46ZM378.86,203.94l6.26-17.58h.15l5.99,17.58h-12.39Z"/><path class="cls-1" d="M326.07,108.14h13.03c3.86,0,7-3.13,7-7.01v-41.05h24.22v-12.02h-24.22v-29.99h.02V0h-25.44c3.25,4.99,5.25,8.2,5.4,16.97v91.17Z"/><path class="cls-1" d="M275.95,133.12h0v-29h-25.44c3.38,5.2,5.42,8.44,5.42,18.08v9.7h0v21.26c0,3.86,3.15,7,7.01,7h93.12v-12.01h-80.1v-15.03Z"/><path class="cls-1" d="M307.97,58.49c0-12.46-6.63-23.52-16.86-30.46h20.88v-12.01h-36.03V0h-25.44c3.14,4.81,5.11,7.95,5.38,16.02h-35.99v12.01h20.83c-10.24,6.94-16.86,18-16.86,30.46,0,21.02,18.82,38.05,42.04,38.05s42.05-17.03,42.05-38.05ZM243.89,58.49c0-14.37,9.87-26.03,22.02-26.03s22.03,11.66,22.03,26.03-9.86,26.04-22.03,26.04-22.02-11.66-22.02-26.04Z"/><path class="cls-1" d="M522.28,97.86h-152.13v12.02h66.09v54.3h13.01c3.78,0,6.84-3,6.98-6.75l.02-.02v-47.53h66.02v-12.02Z"/><path class="cls-1" d="M379.55,75.6l9.14,9.15c23.21-6.8,44.81-17.2,63.33-30.25,19.6,6.98,34.16,18.79,48.64,32.41l15.36-15.27c-14.9-11.48-34.33-20.54-53.05-25.46,9.23-7.57,17.47-15.83,24.53-24.65,1.7-2.15,3.07-4.07,4.18-5.77.49-.71,2.02-2.93,3.19-5.53,1.92-4.33,1.95-6.21,1.95-6.21l-106.29-.04v12.02h72.38c-2.04,4.6-6.13,11.1-14.24,19.27-15.14,15.22-36.52,29.21-69.11,40.33Z"/><path class="cls-1" d="M39.98,4.65h-13.11C10.83,27.55,0,54.53,0,84.06s10.02,54.16,24.36,76.06h13.68c-12.8-21.5-21.33-46.91-21.33-76.06S26.01,27.12,39.98,4.65Z"/><path class="cls-1" d="M158.31,4.65h13.11c16.03,22.9,26.85,49.88,26.85,79.41s-10,54.16-24.35,76.06h-13.67c12.79-21.5,21.32-46.91,21.32-76.06s-9.3-56.94-23.26-79.41Z"/><path class="cls-1" d="M28.92,107.23h57.71v52.92h13.92c4.05,0,7.32-2.92,7.48-6.57l.03-.02v-46.33h61.3s0-11.72,0-11.72H28.92v11.72Z"/><path class="cls-1" d="M147.77,12.1l-101.42-.05v11.72l64.56-.02c-2.2,2.36-22.98,33.99-76.02,52.36l9.79,8.91s37.66-11.44,70.8-38.53c33.15-27.1,32.28-34.39,32.28-34.39Z"/><path class="cls-1" d="M102.03,54.19c5.53.18,31.4,13.75,46.07,34.28l14.9-15.51c-8.7-11.64-43.51-24.72-51.51-25.88"/></g></svg>