<?xml version="1.0" encoding="UTF-8"?><svg id="_레이어_2" xmlns="http://www.w3.org/2000/svg" viewBox="0 0 106.06 106.06"><defs><style>.cls-1{fill:#fff000;}.cls-1,.cls-2{fill-rule:evenodd;}.cls-2{fill:#17288a;}</style></defs><g id="_레이어_4"><path class="cls-1" d="M106.06,53.03c0,29.29-23.74,53.03-53.03,53.03S0,82.32,0,53.03,23.74,0,53.03,0s53.03,23.74,53.03,53.03Z"/><path class="cls-2" d="M82.76,9.11l-24.66,13.7c-3.12,1.73-4.25,5.67-2.51,8.79h0s8.81,15.86,8.81,15.86h0s10.26,18.48,10.26,18.48h0c3.45,6.22,1.21,14.05-5,17.51l-34.89,19.39c.74.27,1.5.53,2.26.77l34.25-19.03c7.52-4.18,10.23-13.66,6.05-21.17,0,0,0,0,0,0l-7.45-13.42c-2.04-.35-4-1.7-5.17-3.81-1.17-2.11-1.28-4.48-.5-6.4l-6.08-10.95h0c-.94-1.69-.33-3.82,1.36-4.76l6.6-3.67,10.69,19.24,11.43,20.58h0c4.65,8.36,1.64,18.9-6.71,23.54l-38.46,21.36c3.24.62,6.59.94,10.01.94,29.29,0,53.03-23.74,53.03-53.03,0-18.28-9.25-34.39-23.31-43.93Z"/><path class="cls-2" d="M50.37,75.05h0s-6.05-10.9-6.05-10.9c-2.03-.36-3.98-1.7-5.14-3.8-1.17-2.1-1.29-4.47-.51-6.38l-7.36-13.26h0c-3.45-6.22-1.21-14.05,5-17.51L71.87,3.44c-.73-.28-1.48-.54-2.23-.79l-34.97,19.43c-7.52,4.18-10.22,13.66-6.05,21.17h0s9.82,17.67,9.82,17.67h0s9.39,16.9,9.39,16.9h0c.94,1.69.33,3.82-1.36,4.76l-6.59,3.66-8.33-15c-2.03-.35-3.98-1.7-5.14-3.8-1.16-2.1-1.28-4.46-.51-6.38l-8.13-14.63h0c-4.64-8.36-1.63-18.89,6.72-23.54L63.75,1.08c-3.46-.71-7.04-1.08-10.72-1.08C23.74,0,0,23.74,0,53.03c0,18.46,9.43,34.72,23.74,44.21l24.12-13.4c3.12-1.74,4.25-5.67,2.51-8.79Z"/><path class="cls-2" d="M63.53,68.64h0s-6.42-11.57-6.42-11.57c-2.04-.35-4-1.7-5.16-3.81-1.17-2.11-1.29-4.5-.49-6.42l-6.43-11.57h0c-2.36-4.24-.83-9.59,3.41-11.94l30.18-16.76c-.61-.34-1.24-.67-1.87-.98l-29.77,16.54c-5.64,3.14-7.68,10.25-4.54,15.9h0s9.19,16.54,9.19,16.54h-.03s9.34,16.82,9.34,16.82h0c2.36,4.24.83,9.58-3.41,11.94l-29.59,16.44c.62.33,1.25.66,1.89.97l29.16-16.19c5.64-3.14,7.67-10.26,4.54-15.9Z"/></g></svg>