<?xml version="1.0" encoding="UTF-8"?><svg id="_레이어_2" xmlns="http://www.w3.org/2000/svg" viewBox="0 0 526.58 254.41"><defs><style>.cls-1{letter-spacing:-.03em;}.cls-2{letter-spacing:-.02em;}.cls-3{font-family:NotoSansKR-Bold-KSCpc-EUC-H, 'Noto Sans KR';font-size:34px;font-weight:700;}.cls-3,.cls-4{fill:#666767;}.cls-5{letter-spacing:0em;}.cls-6{letter-spacing:-.02em;}.cls-4{fill-rule:evenodd;}.cls-7{letter-spacing:-.02em;}</style></defs><g id="_레이어_1-2"><path class="cls-4" d="M326.07,108.14h13.03c3.86,0,7-3.13,7-7.01v-41.05h24.22v-12.02h-24.22v-29.99h.02V0h-25.44c3.25,4.99,5.25,8.2,5.4,16.97v91.17Z"/><path class="cls-4" d="M275.95,133.12h0v-29h-25.44c3.38,5.2,5.42,8.44,5.42,18.08v9.7h0v21.26c0,3.86,3.15,7,7.01,7h93.12v-12.01h-80.1v-15.03Z"/><path class="cls-4" d="M307.97,58.49c0-12.46-6.63-23.52-16.86-30.46h20.88v-12.01h-36.03V0h-25.44c3.14,4.81,5.11,7.95,5.38,16.02h-35.99v12.01h20.83c-10.24,6.94-16.86,18-16.86,30.46,0,21.02,18.82,38.05,42.04,38.05s42.05-17.03,42.05-38.05ZM243.89,58.49c0-14.37,9.87-26.03,22.02-26.03s22.03,11.66,22.03,26.03-9.86,26.04-22.03,26.04-22.02-11.66-22.02-26.04Z"/><path class="cls-4" d="M522.28,97.86h-152.13v12.02h66.09v54.3h13.01c3.78,0,6.84-3,6.98-6.75l.02-.02v-47.53h66.02v-12.02Z"/><path class="cls-4" d="M379.55,75.6l9.14,9.15c23.21-6.8,44.81-17.2,63.33-30.25,19.6,6.98,34.16,18.79,48.64,32.41l15.36-15.27c-14.9-11.48-34.33-20.54-53.05-25.46,9.23-7.57,17.47-15.83,24.53-24.65,1.7-2.15,3.07-4.07,4.18-5.77.49-.71,2.02-2.93,3.19-5.53,1.92-4.33,1.95-6.21,1.95-6.21l-106.29-.04v12.02h72.38c-2.04,4.6-6.13,11.1-14.24,19.27-15.14,15.22-36.52,29.21-69.11,40.33Z"/><path class="cls-4" d="M39.98,4.65h-13.11C10.83,27.55,0,54.53,0,84.06s10.02,54.16,24.36,76.06h13.68c-12.8-21.5-21.33-46.91-21.33-76.06S26.01,27.12,39.98,4.65Z"/><path class="cls-4" d="M158.31,4.65h13.11c16.03,22.9,26.85,49.88,26.85,79.41s-10,54.16-24.35,76.06h-13.67c12.79-21.5,21.32-46.91,21.32-76.06s-9.3-56.94-23.26-79.41Z"/><path class="cls-4" d="M28.92,107.23h57.71v52.92h13.92c4.05,0,7.32-2.92,7.48-6.57l.03-.02v-46.33h61.3s0-11.72,0-11.72H28.92v11.72Z"/><path class="cls-4" d="M147.77,12.1l-101.42-.05v11.72l64.56-.02c-2.2,2.36-22.98,33.99-76.02,52.36l9.79,8.91s37.66-11.44,70.8-38.53c33.15-27.1,32.28-34.39,32.28-34.39Z"/><path class="cls-4" d="M102.03,54.19c5.53.18,31.4,13.75,46.07,34.28l14.9-15.51c-8.7-11.64-43.51-24.72-51.51-25.88"/><text class="cls-3" transform="translate(0 218.84) scale(1.06 1)"><tspan x="0" y="0">UTILI</tspan><tspan class="cls-6" x="88.77" y="0">T</tspan><tspan class="cls-5" x="109.38" y="0">Y MONI</tspan><tspan class="cls-1" x="228.75" y="0">T</tspan><tspan x="248.94" y="0">ORING </tspan><tspan class="cls-6" x="367.09" y="0">S</tspan><tspan class="cls-7" x="387.66" y="0">Y</tspan><tspan class="cls-2" x="406.7" y="0">S</tspan><tspan class="cls-5" x="427.14" y="0">TEM</tspan></text></g></svg>