<?xml version="1.0" encoding="UTF-8"?><svg id="_레이어_2" xmlns="http://www.w3.org/2000/svg" viewBox="0 0 216.83 75.2"><defs><style>.cls-1{letter-spacing:-.02em;}.cls-2{letter-spacing:-.02em;}.cls-3{fill:#231815;fill-rule:evenodd;}.cls-4{letter-spacing:-.02em;}.cls-5{letter-spacing:-.03em;}.cls-6{fill:#b3b3b3;font-family:NotoSansKR-Bold-KSCpc-EUC-H, 'Noto Sans KR';font-size:14px;font-weight:700;}</style></defs><g id="_레이어_4"><path class="cls-3" d="M183.41,20.34h0V1.9h0V.03h-6.71c.89,1.37,1.43,2.22,1.43,4.77h0v16.67c-.17,4.7-3.8,9.28-8.97,9.28s-8.83-4.61-8.97-9.32V1.9h0V.03h-6.71c.89,1.37,1.43,2.22,1.43,4.77h0v15.54h0c0,7.87,6.38,14.25,14.25,14.25s14.25-6.38,14.25-14.26h0Z"/><path class="cls-3" d="M125.53.03h-6.71c.89,1.37,1.43,2.22,1.43,4.77h0v21.79L103.41,0l-.09.03h-6.72c.89,1.37,1.43,2.22,1.43,4.77h0v29.02h3.43c1.02,0,1.85-.83,1.85-1.85v-.02h0V7.91l16.41,25.91h0s0,0,0,0h3.95c1.02,0,1.84-.83,1.84-1.85v-.02h0V1.9h0V.03Z"/><path class="cls-3" d="M148.66,1.89h0V.02h-6.71c.89,1.37,1.43,2.23,1.43,4.77h0v19.59h0c0,3.57-2.34,6.47-5.63,6.47-2.71,0-4.78-1.96-5.42-4.66l-4.26,2.58c1.8,3.52,5.47,5.92,9.69,5.92,6.01,0,10.9-4.87,10.9-10.89h0s0-21.92,0-21.92Z"/><path class="cls-3" d="M61.92.03h-6.71c.89,1.37,1.43,2.22,1.43,4.77h0v9.06h-16.51V1.9h0V.03h-6.71c.89,1.37,1.43,2.22,1.43,4.77h0v29.02h3.43c1.02,0,1.85-.83,1.85-1.85v-.03h0v-14.43h16.51v16.3h3.43c1.02,0,1.85-.83,1.85-1.85V1.9h0V.03Z"/><path class="cls-3" d="M80.85.02h-6.2c.5.76.93,1.89.68,3.61l-11.42,30.2h5.44l3.52-9.9h14.6s3.36,9.89,3.36,9.89h5.62L84.19.02h-3.34ZM74.18,20.27l6.09-17.09h.14l5.82,17.1h-12.05Z"/><text class="cls-6" transform="translate(0 60.55) scale(1.06 1)"><tspan x="0" y="0">UTILI</tspan><tspan class="cls-1" x="36.55" y="0">T</tspan><tspan x="45.04" y="0">Y MONI</tspan><tspan class="cls-5" x="94.19" y="0">T</tspan><tspan x="102.51" y="0">ORING </tspan><tspan class="cls-1" x="151.16" y="0">S</tspan><tspan class="cls-2" x="159.63" y="0">Y</tspan><tspan class="cls-4" x="167.47" y="0">S</tspan><tspan x="175.88" y="0">TEM</tspan></text></g></svg>